<?xml version="1.0" standalone="no"?>
<!DOCTYPE svg PUBLIC "-//W3C//DTD SVG 20010904//EN"
 "http://www.w3.org/TR/2001/REC-SVG-20010904/DTD/svg10.dtd">
<svg version="1.0" xmlns="http://www.w3.org/2000/svg"
 width="1536.000000pt" height="1024.000000pt" viewBox="0 0 1536.000000 1024.000000"
 preserveAspectRatio="xMidYMid meet">

<g transform="translate(0.000000,1024.000000) scale(0.100000,-0.100000)"
fill="#000000" stroke="none">
<path d="M3786 7294 c-17 -16 -20 -27 -16 -59 3 -32 20 -45 56 -45 56 0 83 61
44 100 -24 24 -63 26 -84 4z m78 -13 c26 -29 9 -75 -28 -79 -35 -4 -56 13 -56
49 0 46 52 65 84 30z"/>
<path d="M3290 7260 c-32 -32 -22 -82 20 -100 35 -14 67 0 80 36 24 63 -52
112 -100 64z m71 0 c26 -15 26 -75 0 -90 -53 -28 -107 45 -61 82 26 21 34 22
61 8z"/>
<path d="M4202 7264 c-46 -32 -17 -114 40 -114 26 0 58 36 58 65 0 29 -32 65
-58 65 -10 0 -28 -7 -40 -16z m74 -15 c21 -23 12 -64 -17 -79 -48 -26 -94 51
-49 83 27 18 47 17 66 -4z"/>
<path d="M2846 7128 c-9 -12 -16 -29 -16 -38 0 -30 30 -60 60 -60 36 0 73 43
64 74 -14 49 -81 63 -108 24z m83 -2 c22 -26 9 -70 -23 -81 -24 -8 -31 -6 -47
14 -20 24 -18 59 5 73 18 12 53 9 65 -6z"/>
<path d="M3739 7041 c-20 -20 -29 -39 -29 -61 0 -43 47 -90 90 -90 44 0 69 16
86 56 12 29 12 39 0 68 -26 64 -97 76 -147 27z m105 8 c41 -19 49 -89 14 -126
-39 -41 -114 -22 -132 34 -9 30 9 77 35 90 30 16 51 16 83 2z"/>
<path d="M3350 7043 c-38 -14 -60 -47 -60 -89 0 -35 5 -47 31 -68 34 -29 55
-32 94 -14 27 12 55 54 55 83 0 32 -30 73 -61 84 -35 12 -37 12 -59 4z m80
-31 c29 -24 30 -86 2 -115 -29 -28 -90 -25 -115 5 -22 28 -17 96 9 115 25 19
78 16 104 -5z"/>
<path d="M4144 7040 c-31 -12 -54 -49 -54 -88 0 -45 46 -92 90 -92 47 0 90 47
90 97 -1 71 -60 110 -126 83z m99 -31 c35 -43 12 -119 -41 -132 -88 -21 -135
94 -60 148 29 20 76 13 101 -16z"/>
<path d="M2954 6930 c-46 -18 -68 -85 -44 -131 15 -27 62 -49 91 -42 44 11 69
43 69 89 0 45 -16 69 -57 85 -28 11 -31 11 -59 -1z m86 -30 c12 -12 20 -33 20
-55 0 -46 -29 -75 -74 -75 -39 0 -76 37 -76 75 0 12 9 34 21 49 26 33 79 36
109 6z"/>
<path d="M2445 6918 c-28 -16 -35 -28 -35 -64 0 -58 68 -86 110 -44 50 50 -14
142 -75 108z m65 -23 c16 -19 16 -61 1 -79 -15 -18 -69 -15 -82 5 -13 20 -11
63 3 77 17 17 63 15 78 -3z"/>
<path d="M3753 6779 c-92 -26 -107 -163 -24 -212 99 -58 211 41 167 147 -23
55 -82 82 -143 65z m101 -30 c14 -11 24 -25 21 -30 -4 -5 -1 -9 4 -9 6 0 11
-20 11 -44 0 -96 -107 -140 -176 -71 -19 19 -24 35 -24 74 0 43 4 53 31 75 39
33 95 35 133 5z"/>
<path d="M4065 6756 c-62 -27 -90 -95 -65 -156 51 -123 235 -70 217 62 -6 46
-29 75 -74 94 -39 17 -40 17 -78 0z m88 -23 c-2 -7 3 -10 11 -7 17 6 46 -43
46 -76 0 -29 -26 -76 -52 -94 -52 -37 -139 0 -153 64 -9 42 12 97 43 115 32
17 108 16 105 -2z"/>
<path d="M3369 6745 c-36 -19 -63 -78 -55 -120 27 -142 236 -130 236 13 0 90
-102 150 -181 107z m106 -9 c71 -30 84 -134 23 -179 -38 -28 -105 -25 -136 6
-53 53 -42 145 20 172 42 18 51 18 93 1z"/>
<path d="M2582 6713 c-23 -9 -44 -64 -38 -98 21 -108 176 -86 176 25 0 10 -12
32 -26 49 -20 25 -33 31 -62 30 -21 0 -43 -3 -50 -6z m96 -23 c12 -12 22 -26
23 -33 0 -7 2 -20 4 -30 4 -24 -33 -63 -67 -71 -67 -15 -113 91 -59 135 30 25
72 24 99 -1z"/>
<path d="M3028 6650 c-57 -45 -61 -125 -7 -176 25 -24 39 -29 79 -29 106 0
154 119 78 196 -24 24 -38 29 -77 29 -33 0 -56 -6 -73 -20z m149 -25 c33 -38
32 -108 -2 -139 -34 -32 -66 -39 -112 -23 -52 17 -80 71 -63 122 6 19 23 44
38 56 38 29 107 22 139 -16z"/>
<path d="M2075 6595 c-14 -13 -25 -33 -25 -45 0 -21 41 -70 59 -70 77 0 103
98 34 129 -34 16 -41 14 -68 -14z m83 -7 c31 -31 2 -90 -42 -90 -32 0 -46 15
-46 53 0 32 17 49 50 49 14 0 31 -5 38 -12z"/>
<path d="M2734 6456 c-28 -28 -34 -42 -34 -76 0 -34 6 -48 34 -76 28 -28 42
-34 76 -34 35 0 48 6 77 35 33 33 35 39 30 82 -11 100 -114 138 -183 69z m120
10 c40 -16 61 -61 52 -109 -9 -50 -37 -70 -96 -71 -66 -1 -95 28 -95 95 0 40
5 51 30 73 34 29 61 32 109 12z"/>
<path d="M2274 6446 c-59 -26 -68 -103 -19 -152 43 -42 111 -29 141 27 39 77
-42 161 -122 125z m76 -11 c50 -26 57 -94 14 -132 -35 -31 -70 -29 -106 7 -25
26 -29 35 -23 63 9 39 30 64 59 70 11 2 22 5 24 6 2 0 16 -6 32 -14z"/>
<path d="M3723 6436 c-44 -20 -66 -58 -65 -113 0 -57 26 -94 77 -111 49 -16
86 -8 124 27 39 36 48 87 25 136 -29 63 -98 89 -161 61z m124 -28 c12 -12 20
-25 17 -29 -3 -5 -1 -9 4 -9 16 0 20 -64 6 -92 -20 -39 -53 -58 -102 -58 -35
0 -49 6 -72 29 -39 38 -40 108 -3 151 36 43 108 47 150 8z"/>
<path d="M3429 6407 c-91 -61 -59 -199 48 -214 74 -10 134 41 135 115 0 48
-23 85 -67 106 -45 22 -76 20 -116 -7z m131 -16 c47 -33 52 -120 9 -160 -47
-44 -149 -28 -170 26 -43 114 64 203 161 134z"/>
<path d="M3971 6395 c-50 -43 -60 -99 -28 -163 27 -55 124 -70 176 -27 60 51
64 131 9 185 -40 41 -111 43 -157 5z m144 -9 c47 -44 53 -120 12 -160 -70 -71
-187 -31 -187 64 0 47 23 93 54 109 39 18 93 13 121 -13z"/>
<path d="M3195 6352 c-36 -8 -73 -42 -85 -77 -32 -98 76 -189 168 -141 72 37
81 143 18 195 -19 16 -74 28 -101 23z m93 -37 c72 -61 40 -162 -57 -181 -23
-5 -32 -4 -28 4 4 6 0 8 -10 6 -27 -6 -63 28 -72 68 -23 99 90 168 167 103z"/>
<path d="M2468 6231 c-29 -26 -33 -35 -32 -80 1 -59 27 -95 80 -110 45 -12 78
-3 110 30 22 23 27 38 27 75 0 41 -4 51 -36 81 -49 44 -102 46 -149 4z m142
-11 c64 -68 29 -169 -58 -170 -83 0 -130 68 -98 143 26 64 108 78 156 27z"/>
<path d="M1822 6220 c-34 -14 -47 -51 -31 -86 21 -43 85 -49 111 -10 16 24 8
75 -14 90 -25 18 -33 19 -66 6z m66 -22 c7 -7 12 -24 12 -38 0 -64 -81 -71
-103 -9 -14 42 59 79 91 47z"/>
<path d="M2928 6193 c-81 -50 -56 -191 37 -209 101 -19 176 77 130 166 -29 56
-112 77 -167 43z m139 -28 c33 -37 38 -71 19 -112 -21 -44 -68 -65 -120 -53
-21 4 -39 10 -40 12 -39 52 -46 94 -22 137 31 57 121 66 163 16z"/>
<path d="M2027 6096 c-49 -37 -41 -123 14 -151 35 -19 53 -19 88 0 52 26 60
96 18 143 -24 25 -90 30 -120 8z m113 -16 c43 -43 23 -120 -35 -134 -77 -19
-131 76 -77 137 21 24 86 23 112 -3z"/>
<path d="M2745 6026 c-41 -18 -65 -47 -71 -88 -17 -101 87 -171 174 -118 43
27 63 74 52 123 -10 47 -26 66 -67 84 -39 16 -50 16 -88 -1z m114 -35 c26 -24
31 -37 31 -73 0 -36 -6 -50 -31 -74 -25 -24 -38 -29 -75 -28 -77 2 -119 68
-89 140 20 49 41 63 91 64 33 0 49 -6 73 -29z"/>
<path d="M2271 5944 c-80 -67 -31 -194 75 -194 108 0 153 133 66 200 -37 30
-102 27 -141 -6z m146 -19 c32 -32 35 -40 30 -73 -4 -20 -11 -38 -17 -40 -5
-2 -8 -8 -5 -12 9 -14 -50 -40 -88 -40 -49 0 -90 45 -90 101 0 35 6 48 32 71
46 41 92 39 138 -7z"/>
<path d="M11476 5944 c-22 -8 -42 -17 -45 -20 -6 -7 34 1 62 12 14 5 15 -58
10 -603 -3 -334 -3 -639 1 -677 10 -88 38 -120 116 -130 29 -4 50 -12 50 -19
0 -9 -56 -11 -235 -9 -203 2 -235 5 -235 18 0 8 5 12 10 9 6 -4 34 -1 63 5 92
19 87 -19 87 642 0 365 -4 587 -11 610 -11 43 -33 53 -99 46 -26 -2 -41 1 -45
10 -5 14 -9 13 104 41 46 12 91 26 100 32 18 11 17 11 -129 -26 -80 -20 -85
-23 -88 -49 l-4 -29 61 6 c105 8 96 62 99 -585 2 -310 0 -582 -3 -606 -9 -63
-33 -82 -100 -82 -53 0 -55 -1 -55 -27 l0 -28 245 0 245 0 0 28 c0 25 -3 27
-45 27 -24 0 -55 5 -68 11 -51 23 -50 4 -48 731 0 373 0 678 -2 677 -1 0 -20
-7 -41 -15z"/>
<path d="M6164 5899 c-71 -12 -173 -50 -240 -90 -396 -236 -473 -813 -151
-1128 75 -73 111 -98 206 -143 229 -109 547 -101 747 20 l44 27 0 153 0 154
-34 -30 c-41 -36 -134 -92 -192 -114 -56 -23 -195 -40 -252 -33 -156 21 -282
106 -347 234 -146 290 13 637 320 701 150 31 330 -27 458 -148 22 -22 37 -30
37 -22 0 19 -108 98 -186 138 -99 50 -237 66 -339 38 -168 -45 -307 -191 -346
-364 -17 -79 -12 -190 13 -267 12 -39 22 -76 21 -82 0 -7 4 -10 10 -6 7 4 8 0
3 -13 -4 -10 -4 -15 0 -12 3 4 24 -14 44 -40 27 -33 35 -49 27 -55 -8 -6 -7
-7 3 -4 8 2 29 -6 45 -18 175 -130 438 -122 635 19 25 18 50 35 57 39 9 6 12
-25 10 -130 l-2 -138 -75 -38 c-146 -73 -356 -93 -555 -52 -69 14 -245 98
-245 116 0 5 -7 9 -16 9 -16 0 -154 135 -154 151 0 5 0 11 0 14 0 2 -11 16
-25 31 -13 14 -38 62 -55 107 -100 261 -29 579 172 776 99 97 233 164 373 187
179 29 367 3 500 -70 l60 -32 3 -137 c1 -75 6 -137 10 -137 4 0 6 61 6 136
l-2 136 -43 29 c-124 82 -356 120 -545 88z"/>
<path d="M8050 5878 c-63 -5 -279 -7 -480 -5 l-366 3 4 -28 c5 -31 13 -34 101
-41 36 -3 59 -10 67 -21 21 -29 26 -180 22 -686 -3 -509 -4 -516 -48 -540 -11
-6 -48 -13 -83 -17 -61 -5 -63 -6 -59 -32 l4 -26 283 0 283 0 4 26 c4 26 3 27
-63 32 -86 7 -106 18 -119 65 -11 42 -14 529 -2 534 4 2 91 1 194 -2 185 -5
188 -5 213 -31 20 -19 28 -40 32 -82 3 -31 10 -57 15 -57 5 0 7 8 5 18 -3 9
-8 38 -12 63 -10 78 -35 93 -168 100 -62 3 -152 5 -202 5 l-90 -1 -3 -270 c-1
-171 1 -279 8 -295 15 -37 46 -52 117 -58 49 -4 63 -8 63 -21 0 -14 -27 -16
-275 -13 -221 2 -275 5 -275 16 0 9 19 15 59 19 32 2 71 12 87 21 16 8 25 15
21 16 -5 0 -1 10 7 22 14 20 16 90 16 568 0 300 -5 563 -10 584 -12 55 -28 66
-109 78 -53 9 -71 15 -71 27 0 14 40 16 387 13 214 -2 435 1 493 6 58 5 107 8
108 6 2 -1 -2 -70 -9 -152 -10 -123 -15 -149 -27 -148 -9 2 -17 15 -19 32 -9
77 -11 91 -23 115 -20 43 -72 60 -210 70 -158 10 -317 11 -324 1 -2 -4 -6
-133 -8 -287 l-3 -280 170 -5 c94 -3 177 -2 185 2 8 4 32 10 52 13 40 6 51 25
64 118 5 37 10 47 25 47 17 0 18 -12 16 -220 l-2 -219 -25 -4 c-21 -3 -19 -4
7 -6 l32 -1 3 229 3 229 -32 4 -31 4 -11 -70 c-5 -38 -16 -76 -24 -84 -24 -23
-90 -31 -262 -32 l-160 0 3 277 c2 153 4 279 6 280 2 2 99 0 217 -5 292 -12
305 -19 316 -153 6 -67 7 -69 33 -69 l27 0 14 165 14 165 -30 -1 c-16 -1 -82
-6 -145 -11z"/>
<path d="M4510 5190 l0 -690 155 0 155 0 0 315 c0 286 5 349 24 299 3 -9 90
-151 194 -315 l187 -299 184 0 c174 0 183 1 169 18 -21 23 -378 559 -378 566
0 3 7 6 15 6 29 0 140 58 183 95 174 152 158 475 -31 599 -115 76 -241 96
-612 96 l-245 0 0 -690z m640 661 c242 -42 352 -161 353 -381 1 -82 -3 -103
-25 -152 -38 -82 -100 -145 -183 -185 -38 -18 -75 -31 -82 -29 -7 3 -15 -4
-18 -14 -6 -19 7 -49 36 -85 9 -11 83 -119 164 -240 81 -121 155 -228 163
-237 14 -17 6 -18 -155 -18 l-171 0 -72 118 c-40 64 -87 140 -105 167 -31 49
-54 85 -159 255 -29 47 -59 85 -67 85 -12 0 -14 -54 -17 -312 l-2 -313 -145 0
-145 0 0 679 0 679 288 -3 c158 -2 312 -8 342 -14z"/>
<path d="M4923 5651 c-56 -3 -104 -8 -107 -11 -10 -11 -11 -439 -1 -431 6 4
56 7 112 7 55 -1 99 2 96 7 -2 4 3 7 12 7 24 0 107 45 132 72 70 74 70 200 0
268 -43 42 -54 49 -101 62 -25 6 -43 15 -40 20 3 4 4 7 2 6 -2 -1 -49 -4 -105
-7z m165 -41 c178 -77 156 -301 -35 -360 -43 -13 -93 -20 -149 -20 l-84 0 0
198 c0 109 3 202 8 206 4 5 52 6 107 4 75 -4 113 -11 153 -28z"/>
<path d="M3140 5185 l0 -685 160 0 160 0 0 295 0 295 280 0 280 0 0 -295 0
-295 160 0 160 0 0 685 0 685 -160 0 -160 0 0 -250 0 -249 -280 -3 -280 -3 0
253 0 252 -160 0 -160 0 0 -685z m301 425 c1 -175 4 -247 12 -252 7 -4 137 -8
290 -8 l277 0 9 23 c5 12 8 127 7 255 l-1 232 148 0 147 0 0 -675 0 -675 -147
0 -148 0 0 295 1 295 -292 0 c-257 0 -293 -2 -298 -16 -3 -9 -6 -141 -6 -295
l0 -279 -145 0 -145 0 0 675 0 676 145 -3 145 -3 1 -245z"/>
<path d="M10795 5826 c-61 -26 -75 -118 -26 -167 24 -23 38 -29 75 -29 82 0
116 31 116 108 -1 81 -82 124 -165 88z m127 -24 c29 -28 35 -94 12 -126 -37
-50 -142 -47 -169 4 -16 32 -20 74 -6 66 5 -4 7 3 4 14 -6 23 11 48 42 61 31
13 96 3 117 -19z"/>
<path d="M11883 5825 c-34 -15 -50 -36 -53 -75 -4 -52 1 -72 25 -95 34 -35
122 -36 160 -2 51 44 42 131 -17 167 -38 23 -70 25 -115 5z m125 -28 c17 -16
22 -31 22 -66 -1 -64 -18 -83 -82 -89 -73 -6 -108 21 -108 82 0 49 27 92 63
99 36 7 80 -4 105 -26z"/>
<path d="M2580 5803 c-50 -26 -76 -83 -61 -132 14 -49 50 -81 98 -88 75 -10
133 43 133 122 0 26 -8 44 -32 70 -41 44 -88 54 -138 28z m112 -15 c43 -21 61
-105 32 -146 -46 -66 -159 -63 -184 4 -41 107 52 194 152 142z"/>
<path d="M1632 5774 c-26 -18 -30 -74 -6 -98 18 -18 56 -21 85 -6 28 16 27 84
-3 104 -12 9 -29 16 -38 16 -9 0 -26 -7 -38 -16z m66 -10 c24 -17 30 -62 10
-82 -7 -7 -24 -12 -38 -12 -33 0 -50 17 -50 49 0 26 25 61 44 61 6 0 22 -7 34
-16z"/>
<path d="M1865 5705 c-19 -18 -25 -35 -25 -65 0 -55 34 -90 87 -90 86 1 124
91 64 151 -38 38 -91 40 -126 4z m99 4 c50 -23 57 -103 13 -134 -52 -36 -127
2 -127 65 0 36 38 80 69 80 11 0 31 -5 45 -11z"/>
<path d="M10225 5659 l-80 -28 -5 -146 c-6 -167 -5 -166 -95 -185 -44 -9 -51
-14 -50 -33 1 -20 8 -22 71 -27 l69 -5 0 -310 c0 -340 3 -361 57 -414 61 -60
212 -65 293 -10 36 25 75 77 75 101 0 13 -7 13 -52 -3 -61 -21 -116 -24 -151
-8 -49 22 -52 43 -54 348 -2 156 -5 287 -8 290 -4 3 -5 -127 -3 -289 4 -316 7
-337 55 -359 33 -15 100 -14 156 3 50 15 50 15 14 -38 -42 -60 -192 -91 -275
-57 -36 15 -76 63 -86 106 -4 17 -7 168 -7 336 2 350 6 333 -84 327 -68 -4
-76 16 -12 32 57 15 86 30 92 49 2 9 5 78 7 154 2 131 3 137 22 137 12 0 47
11 79 24 49 21 57 22 53 8 -4 -15 -11 -302 -7 -327 0 -6 16 -10 34 -8 17 1 76
4 130 6 l97 4 0 -38 0 -39 -130 0 c-71 0 -130 -3 -130 -7 0 -7 87 -8 238 -4
l32 1 0 54 0 53 -42 -8 c-24 -4 -84 -8 -135 -9 -82 0 -91 2 -88 18 8 37 14
332 7 331 -4 -1 -43 -14 -87 -30z"/>
<path d="M12445 5659 l-80 -28 -5 -146 c-6 -167 -4 -164 -94 -184 -49 -11 -55
-15 -52 -34 3 -20 10 -22 74 -25 l72 -3 0 -307 c0 -192 4 -322 11 -347 29
-102 145 -149 276 -110 62 19 95 44 117 90 20 41 14 60 -14 43 -16 -10 -17
-13 -4 -23 35 -25 -58 -96 -143 -109 -97 -15 -173 19 -210 94 -22 43 -23 52
-23 362 l0 318 -24 6 c-13 3 -44 3 -70 0 -55 -6 -66 18 -13 29 29 7 84 30 97
42 3 3 7 70 10 150 l5 146 60 17 c33 9 66 19 74 21 12 3 14 -18 12 -130 -2
-73 -5 -144 -7 -157 -2 -13 0 -24 6 -24 6 0 10 44 10 118 0 64 3 141 6 170 4
28 3 51 -2 51 -5 -1 -45 -14 -89 -30z"/>
<path d="M2180 5653 c-55 -20 -86 -83 -70 -141 14 -55 50 -82 107 -82 38 0 50
5 79 34 39 39 45 86 18 137 -22 43 -88 69 -134 52z m91 -26 c84 -56 48 -187
-51 -187 -120 0 -141 173 -25 203 35 9 42 7 76 -16z"/>
<path d="M2474 5555 c-82 -42 -85 -168 -4 -210 88 -46 190 22 177 118 -11 81
-101 129 -173 92z m131 -29 c38 -38 44 -86 16 -132 -50 -82 -174 -62 -197 33
-13 51 29 117 79 125 28 5 87 -10 102 -26z"/>
<path d="M8630 5404 c-51 -9 -146 -48 -185 -74 -58 -40 -119 -110 -150 -170
-80 -159 -66 -387 34 -536 56 -85 126 -131 229 -153 173 -36 426 29 479 124
12 21 20 43 17 47 -3 4 -31 -5 -63 -21 -90 -46 -163 -64 -246 -59 -171 8 -279
123 -300 321 l-7 67 218 0 c196 0 355 10 423 26 23 5 23 8 17 68 -18 180 -105
308 -234 346 -41 12 -192 21 -232 14z m174 -16 c167 -27 252 -133 281 -350 5
-39 4 -47 -12 -52 -42 -13 -261 -26 -445 -26 l-198 0 0 -38 c0 -156 69 -285
183 -344 58 -30 181 -36 262 -13 33 10 70 18 82 19 11 0 20 3 18 6 -2 3 12 13
30 22 31 15 32 15 28 0 -8 -31 -27 -49 -80 -76 -159 -80 -393 -83 -514 -5 -27
17 -46 36 -42 42 3 6 1 7 -5 3 -19 -12 -121 161 -108 183 4 5 2 11 -4 13 -5 1
-14 39 -20 84 -17 137 14 265 89 364 106 140 268 199 455 168z"/>
<path d="M8587 5347 c3 -5 -5 -7 -18 -3 -13 3 -19 3 -12 0 8 -3 -1 -17 -23
-36 -19 -17 -44 -49 -55 -71 -32 -61 -67 -250 -39 -207 5 8 10 31 10 52 0 53
33 150 64 191 43 56 102 80 189 76 130 -7 178 -70 185 -241 l4 -98 -228 -2
-229 -3 224 -2 c124 -2 228 0 233 5 31 31 4 224 -38 279 -47 62 -77 74 -181
71 -53 -1 -89 -6 -86 -11z"/>
<path d="M9430 5389 c-30 -11 -101 -29 -157 -41 -101 -21 -103 -22 -103 -50
l0 -28 64 3 c43 1 69 -2 78 -11 10 -10 13 -86 13 -348 l0 -336 -24 -19 c-16
-13 -39 -19 -77 -19 -52 0 -54 -1 -54 -27 l0 -28 265 0 265 0 0 28 c0 26 -2
27 -47 27 -67 0 -121 17 -135 43 -17 30 -24 447 -9 503 26 96 103 158 198 159
59 0 81 -15 99 -67 5 -17 17 -32 26 -34 13 -1 19 20 34 110 10 61 19 115 19
121 0 16 -87 36 -131 29 -74 -11 -131 -59 -215 -181 -54 -77 -15 -44 49 43 73
99 114 124 202 124 89 0 87 6 54 -197 -6 -42 -17 -42 -33 2 -17 49 -60 69
-125 60 -28 -4 -59 -8 -68 -8 -9 -1 -14 -5 -12 -9 3 -4 1 -8 -5 -8 -17 0 -72
-63 -92 -105 -16 -35 -19 -66 -19 -268 0 -301 6 -316 130 -325 56 -4 70 -8 70
-21 0 -14 -24 -16 -227 -14 -126 2 -238 3 -250 3 -41 0 -26 27 16 28 57 2 90
18 103 49 8 20 12 123 11 347 l0 320 -29 24 c-24 21 -34 24 -81 18 -48 -6 -53
-4 -53 13 0 15 10 21 43 26 58 9 226 53 248 66 17 9 19 2 22 -103 l3 -113 2
118 c1 64 -1 117 -5 116 -5 0 -33 -9 -63 -20z"/>
<path d="M10840 5379 c-58 -15 -130 -31 -161 -34 -54 -7 -55 -8 -51 -36 4 -28
6 -29 58 -29 41 0 59 -5 74 -20 20 -20 21 -30 18 -356 -3 -384 2 -364 -95
-364 -51 0 -53 -1 -53 -28 l0 -27 245 0 245 0 0 26 c0 25 -3 27 -60 31 -46 3
-66 10 -83 27 l-22 22 1 409 c1 226 -1 409 -5 409 -3 -1 -53 -14 -111 -30z
m102 -364 c-5 -426 -2 -457 52 -474 17 -6 49 -12 71 -13 24 -3 40 -9 40 -17 0
-10 -46 -13 -220 -12 -268 0 -245 -1 -245 10 0 6 21 13 48 16 63 9 90 28 97
67 8 44 12 447 5 576 -4 75 -10 106 -20 112 -8 6 -41 10 -72 10 -50 0 -58 3
-58 18 0 10 6 19 13 19 18 1 207 41 242 52 17 5 35 10 41 10 7 1 9 -110 6
-374z"/>
<path d="M11920 5379 c-58 -15 -131 -30 -162 -34 -55 -7 -58 -9 -58 -36 0 -29
1 -29 60 -29 104 0 100 16 100 -364 0 -312 -1 -324 -21 -350 -18 -22 -28 -26
-75 -26 -52 0 -54 -1 -54 -27 l0 -28 250 0 250 0 0 26 c0 26 -2 27 -66 31 -98
6 -100 9 -109 217 -4 93 -4 278 0 410 5 139 4 240 -1 239 -5 0 -56 -13 -114
-29z m106 -376 c-1 -422 -1 -426 47 -458 12 -7 46 -15 74 -17 39 -2 53 -7 53
-18 0 -13 -33 -15 -240 -15 -217 0 -240 2 -240 17 0 13 10 16 44 16 51 0 81
14 97 44 11 20 14 229 10 585 -1 115 -15 133 -98 133 -44 0 -53 3 -53 18 0 14
18 21 98 36 75 14 204 48 208 55 0 1 0 -178 0 -396z"/>
<path d="M12812 5360 c-2 -22 4 -27 46 -40 43 -14 50 -20 78 -77 16 -34 61
-138 98 -230 38 -92 107 -260 153 -372 l84 -205 -56 -127 c-63 -140 -103 -202
-146 -224 -36 -19 -95 -19 -149 0 -23 8 -44 15 -46 15 -5 0 -44 -110 -44 -124
0 -8 19 -19 44 -25 148 -37 262 22 339 174 13 28 81 183 150 345 165 387 300
697 337 770 32 63 61 90 97 90 19 0 23 6 23 28 l0 29 -180 0 -180 0 0 -27 c0
-25 4 -28 51 -33 69 -8 82 -21 76 -72 -4 -37 -210 -591 -226 -607 -6 -7 -165
395 -221 556 -34 101 -26 126 39 126 34 0 39 5 34 33 l-5 23 -197 0 -197 0 -2
-26z m388 4 c0 -13 -23 -24 -50 -24 -25 0 -49 -36 -43 -63 3 -12 14 -50 25
-84 11 -35 16 -68 12 -74 -4 -7 -3 -9 3 -6 9 6 60 -116 129 -303 40 -109 71
-175 83 -175 12 0 35 52 114 260 16 44 34 89 38 100 42 97 89 242 89 273 0 31
-5 41 -29 55 -16 9 -45 17 -65 17 -28 0 -36 4 -36 18 0 15 15 17 170 17 141 0
170 -2 168 -14 -2 -8 -17 -19 -34 -25 -17 -6 -39 -19 -48 -28 -14 -15 -116
-219 -116 -233 0 -2 -13 -33 -28 -67 -16 -35 -78 -178 -138 -318 -59 -140
-113 -258 -119 -262 -5 -4 -7 -8 -4 -8 7 0 -93 -238 -129 -307 -34 -65 -82
-114 -137 -139 -77 -36 -174 -31 -176 10 -1 19 -2 19 -9 -4 -4 -14 -8 -19 -9
-12 -1 7 -5 10 -11 7 -14 -8 -13 6 4 46 7 19 16 42 19 51 6 16 9 16 40 3 78
-32 156 -21 203 30 27 29 118 206 149 287 17 47 17 48 -8 110 -14 35 -65 158
-112 273 -48 116 -111 270 -140 343 -30 73 -62 146 -72 162 -17 30 -67 60 -97
60 -18 0 -18 2 -11 22 7 18 375 19 375 2z"/>
<path d="M12625 5339 l-100 -6 123 1 122 2 0 -38 0 -38 -127 -1 c-71 -1 -132
-1 -136 0 -5 1 -6 -2 -3 -7 3 -5 6 -146 6 -314 2 -292 3 -307 22 -328 11 -11
31 -25 45 -31 32 -12 114 -11 133 1 10 7 -5 8 -46 4 -73 -8 -120 11 -131 54
-5 15 -8 158 -8 317 l0 290 130 5 130 5 3 48 3 47 -33 -2 c-18 -1 -78 -5 -133
-9z"/>
<path d="M1814 5320 c-54 -22 -71 -99 -31 -145 66 -76 188 -5 156 92 -16 51
-72 74 -125 53z m99 -32 c21 -25 22 -76 1 -106 -20 -28 -93 -31 -117 -4 -37
41 -26 104 23 129 31 16 70 8 93 -19z"/>
<path d="M2113 5315 c-94 -41 -84 -186 15 -216 76 -22 147 34 144 113 -2 53
-33 95 -80 108 -45 12 -40 12 -79 -5z m81 -9 c60 -25 83 -88 55 -150 -15 -33
-73 -56 -114 -45 -92 26 -103 157 -16 193 20 8 37 15 39 15 1 1 18 -5 36 -13z"/>
<path d="M1536 5298 c-22 -31 -20 -64 4 -88 58 -58 142 20 94 88 -10 15 -25
22 -49 22 -24 0 -39 -7 -49 -22z m90 -13 c29 -45 -9 -95 -59 -76 -33 13 -44
57 -21 82 24 27 60 24 80 -6z"/>
<path d="M2450 5300 c-85 -20 -113 -135 -49 -199 50 -50 126 -46 173 10 52 61
26 153 -50 185 -19 8 -35 14 -36 13 -2 -1 -19 -5 -38 -9z m104 -37 c72 -72 31
-183 -69 -183 -75 0 -123 63 -104 135 21 74 119 102 173 48z"/>
<path d="M2414 4996 c-29 -29 -34 -41 -34 -81 0 -40 5 -52 34 -81 28 -28 42
-34 75 -34 78 0 125 44 125 115 0 71 -47 115 -125 115 -33 0 -47 -6 -75 -34z
m137 13 c11 -5 16 -15 13 -21 -4 -7 -3 -8 4 -4 34 21 42 -102 9 -140 -26 -30
-85 -41 -125 -25 -75 31 -82 148 -11 187 29 16 83 18 110 3z"/>
<path d="M2112 4962 c-31 -24 -52 -87 -41 -125 18 -64 82 -98 144 -77 49 16
75 53 75 107 0 38 -5 50 -34 79 -28 28 -41 34 -77 34 -26 0 -53 -8 -67 -18z
m112 -2 c30 -11 56 -57 56 -99 0 -41 -45 -91 -85 -95 -40 -3 -91 21 -104 51
-43 94 37 180 133 143z"/>
<path d="M1811 4894 c-25 -21 -31 -33 -31 -66 0 -51 43 -98 90 -98 46 0 90 47
90 95 0 27 -8 44 -29 66 -37 37 -79 38 -120 3z m117 -20 c30 -34 28 -70 -7
-104 -23 -23 -35 -28 -62 -25 -42 5 -69 37 -69 79 0 79 85 109 138 50z"/>
<path d="M1556 4818 c-22 -31 -20 -64 4 -88 58 -58 142 20 94 88 -10 15 -25
22 -49 22 -24 0 -39 -7 -49 -22z m88 -10 c9 -12 16 -27 16 -33 0 -21 -25 -45
-52 -50 -21 -4 -31 0 -44 19 -39 60 40 122 80 64z"/>
<path d="M2525 4766 c-86 -38 -87 -169 -1 -210 42 -20 46 -20 94 -1 92 37 96
173 7 211 -42 17 -61 17 -100 0z m136 -50 c15 -23 18 -41 14 -71 -19 -128
-205 -112 -205 17 0 100 138 139 191 54z"/>
<path d="M6120 4730 c0 -5 5 -10 11 -10 5 0 7 5 4 10 -3 6 -8 10 -11 10 -2 0
-4 -4 -4 -10z"/>
<path d="M2255 4653 c-61 -11 -95 -54 -95 -119 0 -28 8 -44 34 -70 29 -29 41
-34 81 -34 38 0 52 5 75 29 49 48 52 105 7 156 -23 27 -69 44 -102 38z m89
-42 c58 -61 25 -158 -58 -168 -74 -8 -127 53 -111 127 16 71 117 96 169 41z"/>
<path d="M2623 4505 c-33 -33 -35 -39 -30 -81 7 -64 51 -109 106 -109 95 0
148 83 106 165 -21 42 -53 60 -103 60 -37 0 -50 -6 -79 -35z m138 8 c48 -29
61 -103 26 -147 -61 -76 -182 -31 -182 67 0 31 7 45 33 68 37 34 79 38 123 12z"/>
<path d="M1944 4520 c-28 -11 -54 -48 -54 -78 0 -60 58 -110 113 -97 36 10 68
48 69 84 2 75 -60 119 -128 91z m75 -15 c31 -16 41 -33 41 -71 0 -62 -55 -94
-111 -66 -62 31 -60 116 4 142 31 12 34 12 66 -5z"/>
<path d="M1692 4380 c-43 -41 -17 -110 42 -110 60 0 88 68 46 110 -26 26 -60
25 -88 0z m76 -6 c41 -28 22 -94 -28 -94 -57 0 -78 79 -27 100 30 12 30 12 55
-6z"/>
<path d="M2364 4326 c-27 -27 -34 -42 -34 -72 0 -91 80 -145 157 -108 114 56
77 214 -50 214 -31 0 -46 -7 -73 -34z m126 9 c51 -26 65 -86 35 -145 -12 -23
-24 -30 -61 -36 -58 -8 -89 6 -110 50 -45 93 44 178 136 131z"/>
<path d="M2832 4330 c-66 -40 -76 -125 -21 -179 34 -34 71 -43 118 -28 40 14
81 67 81 106 0 39 -36 90 -75 107 -46 19 -64 18 -103 -6z m97 0 c4 0 17 -8 29
-18 74 -64 28 -182 -70 -182 -58 0 -98 42 -98 103 0 28 7 53 18 67 18 22 75
41 100 34 8 -2 17 -4 21 -4z"/>
<path d="M3024 4146 c-28 -28 -34 -42 -34 -76 0 -68 36 -114 98 -126 91 -18
168 83 128 168 -21 43 -63 68 -116 68 -34 0 -48 -6 -76 -34z m136 9 c77 -40
69 -157 -12 -190 -100 -40 -183 58 -132 156 24 48 88 63 144 34z"/>
<path d="M2123 4136 c-22 -19 -28 -32 -28 -64 0 -83 88 -123 152 -68 22 19 28
32 28 64 0 83 -88 123 -152 68z m109 0 c60 -45 29 -146 -46 -146 -45 0 -76 31
-76 78 0 20 4 42 8 48 22 32 84 43 114 20z"/>
<path d="M11417 4110 c-33 -26 -52 -61 -61 -112 -6 -32 -11 -38 -31 -38 -16 0
-25 -6 -25 -15 0 -10 9 -15 28 -14 19 1 21 3 8 6 -17 4 -16 6 5 17 13 6 25 20
27 31 7 49 13 65 22 60 5 -3 7 1 4 9 -4 9 5 25 21 40 21 20 37 25 67 24 42 -1
60 -21 38 -41 -10 -9 -12 -9 -7 4 3 9 0 16 -8 16 -13 0 -9 -33 5 -42 13 -8 32
23 28 47 -4 33 -82 38 -121 8z"/>
<path d="M4123 4100 c-40 -24 -53 -48 -53 -98 0 -50 29 -88 79 -103 104 -31
187 106 108 178 -51 47 -85 53 -134 23z m116 -17 c54 -44 40 -142 -24 -169
-45 -18 -78 -10 -110 28 -37 44 -31 111 14 145 24 19 95 16 120 -4z"/>
<path d="M2650 4103 c-90 -28 -120 -119 -61 -185 26 -29 35 -33 81 -33 46 0
55 4 81 33 33 37 38 85 14 132 -20 40 -76 65 -115 53z m91 -39 c25 -22 34 -77
19 -113 -11 -29 -62 -61 -94 -61 -50 0 -96 51 -96 106 0 34 43 91 72 96 31 5
77 -8 99 -28z"/>
<path d="M5798 4085 c-15 -33 8 -61 41 -50 22 7 38 46 26 64 -13 21 -55 12
-67 -14z m55 3 c6 -19 -11 -48 -28 -48 -15 0 -21 40 -8 53 11 11 31 8 36 -5z"/>
<path d="M6696 4089 c-11 -16 -12 -27 -5 -41 20 -38 74 -12 67 34 -4 32 -41
36 -62 7z m44 1 c11 -7 12 -14 4 -27 -15 -24 -33 -28 -40 -9 -7 18 1 46 13 46
4 0 15 -5 23 -10z"/>
<path d="M6715 4080 c-3 -5 1 -10 10 -10 9 0 13 5 10 10 -3 6 -8 10 -10 10 -2
0 -7 -4 -10 -10z"/>
<path d="M11168 4085 c-9 -21 -9 -29 4 -41 18 -19 53 -11 62 13 20 50 -44 76
-66 28z m55 3 c6 -18 -11 -48 -28 -48 -18 0 -25 21 -13 43 10 20 34 23 41 5z"/>
<path d="M11432 4098 c-13 -17 -32 -86 -32 -120 0 -20 6 -28 23 -31 19 -4 19
-4 -5 -6 -30 -1 -27 8 -58 -184 -11 -73 -29 -146 -41 -168 -22 -45 -36 -48
-19 -5 5 15 13 49 16 75 3 26 13 94 23 151 16 97 18 120 7 109 -2 -2 -14 -71
-26 -154 -23 -153 -40 -215 -60 -215 -6 0 -21 5 -32 11 -16 9 -24 7 -37 -6
-15 -15 -15 -17 4 -31 46 -35 123 14 149 95 12 35 56 279 56 306 0 3 20 5 44
5 30 0 46 5 50 15 4 12 -4 15 -40 15 l-46 0 7 48 c9 59 20 81 48 92 l22 9 -21
0 c-12 1 -26 -5 -32 -11z m45 -154 c-3 -3 -12 -4 -19 -1 -8 3 -5 6 6 6 11 1
17 -2 13 -5z m-251 -395 c3 -6 17 -9 30 -6 29 5 30 1 4 -13 -25 -13 -60 -4
-60 16 0 17 16 19 26 3z"/>
<path d="M5128 4093 c-42 -3 -58 -8 -58 -18 0 -9 10 -15 25 -15 19 0 25 -5 25
-22 0 -30 -57 -325 -65 -338 -3 -6 -17 -10 -30 -10 -12 0 -26 -7 -29 -16 -5
-14 9 -16 136 -12 129 3 147 5 184 27 48 27 67 57 66 102 -1 51 -37 79 -108
85 -67 6 -84 14 -33 15 103 2 149 34 149 102 0 76 -95 112 -262 100z m87 -15
c-16 -6 -33 -16 -37 -21 -5 -9 -16 -79 -23 -152 -2 -11 -5 -27 -9 -35 -6 -15
-36 -167 -36 -184 0 -5 34 -6 75 -4 65 4 80 9 104 32 31 30 42 65 34 109 -9
45 -20 30 -16 -20 4 -43 2 -51 -26 -78 -27 -25 -41 -30 -97 -33 -64 -4 -65 -4
-59 19 3 13 11 53 18 89 l13 65 55 -2 c134 -4 158 -16 159 -80 0 -77 -82 -114
-253 -111 -62 0 -97 3 -79 5 17 2 32 6 32 9 0 3 7 37 15 77 8 40 21 113 30
162 8 50 17 102 20 118 3 15 2 27 -2 26 -5 -1 -17 0 -28 1 -20 3 66 16 115 18
23 0 23 0 -5 -10z m105 -13 c77 -40 78 -128 1 -150 -23 -7 -23 -7 -7 16 16 24
21 74 10 104 -4 10 -21 23 -38 31 -20 8 -24 13 -13 14 10 0 31 -7 47 -15z
m-17 -27 c26 -31 22 -84 -9 -113 -22 -20 -37 -25 -82 -25 -44 0 -53 3 -48 15
3 9 11 45 17 80 10 52 16 65 33 68 34 6 70 -4 89 -25z m-106 -154 c-3 -3 -12
-4 -19 -1 -8 3 -5 6 6 6 11 1 17 -2 13 -5z"/>
<path d="M10843 4092 c-56 -2 -73 -6 -73 -17 0 -10 10 -15 30 -15 17 0 30 -2
30 -4 0 -2 -13 -76 -30 -164 -16 -89 -30 -167 -29 -174 1 -25 16 27 24 80 4
28 11 50 16 46 5 -3 6 2 3 10 -3 8 2 54 11 101 9 48 14 94 11 101 -3 8 -18 15
-33 16 -15 1 8 4 52 7 98 7 88 17 -12 13z"/>
<path d="M10936 4085 c-3 -8 -15 -15 -26 -15 -11 0 -20 -1 -20 -3 0 -2 -14
-68 -30 -147 -44 -210 -48 -229 -42 -235 3 -3 47 -5 97 -5 l93 0 16 33 c14 26
16 27 12 7 -3 -14 -6 -31 -6 -37 0 -10 -38 -13 -162 -11 -90 0 -148 3 -130 5
17 2 32 8 32 12 0 4 -16 5 -35 3 -24 -3 -35 -9 -35 -21 0 -14 18 -16 169 -13
l170 3 6 43 c11 73 2 87 -22 34 l-22 -48 -85 0 c-65 0 -86 3 -86 13 0 12 52
277 65 333 3 14 15 24 35 27 18 4 30 13 30 22 0 19 -16 20 -24 0z"/>
<path d="M3305 4081 c-76 -32 -91 -143 -28 -203 38 -35 74 -41 120 -23 128 53
97 237 -39 234 -18 0 -42 -4 -53 -8z m106 -17 c37 -19 63 -74 54 -115 -4 -16
-19 -42 -35 -59 -23 -25 -36 -30 -72 -30 -101 1 -146 111 -74 185 39 40 77 45
127 19z"/>
<path d="M7717 4083 c-15 -14 -6 -23 23 -23 17 0 30 -2 30 -5 0 -6 -57 -305
-65 -342 -3 -14 -14 -23 -32 -25 -14 -2 -28 -9 -31 -16 -3 -11 22 -13 139 -10
125 3 150 6 185 25 91 48 153 165 139 261 -8 57 -61 114 -120 131 -43 12 -257
15 -268 4z m141 -10 c-22 -3 -30 -12 -38 -41 -5 -20 -10 -45 -10 -55 0 -11 -5
-15 -11 -11 -7 4 -9 0 -5 -13 3 -11 -4 -71 -17 -134 -13 -63 -22 -120 -19
-127 4 -13 99 -15 138 -4 38 12 83 53 115 105 25 41 31 61 32 116 2 96 -35
144 -123 162 l-35 7 34 1 c33 1 96 -24 135 -54 10 -8 25 -37 32 -64 10 -41 10
-59 -1 -101 -37 -140 -123 -191 -320 -188 -60 0 -98 3 -83 5 15 2 29 12 32 21
7 25 66 343 66 358 0 7 -12 15 -27 17 -16 2 8 4 52 4 44 0 68 -2 53 -4z m138
-56 c31 -33 34 -43 34 -97 0 -132 -91 -230 -215 -230 -36 0 -45 3 -45 17 0 18
58 317 66 342 3 10 20 12 66 9 55 -4 64 -8 94 -41z"/>
<path d="M3843 4055 c-41 -18 -64 -54 -65 -103 -1 -79 66 -141 137 -128 118
22 138 179 30 230 -40 19 -60 20 -102 1z m87 -9 c40 -12 72 -61 72 -108 -2
-105 -149 -141 -197 -48 -23 44 -19 94 10 129 32 37 59 43 115 27z"/>
<path d="M10118 4058 c-22 -8 -28 -17 -34 -53 -5 -38 -10 -45 -35 -50 -33 -8
-39 -25 -8 -25 11 0 17 5 14 10 -3 6 3 10 13 10 16 0 21 9 26 44 4 27 13 47
23 50 22 9 24 5 12 -38 -6 -21 -8 -40 -5 -43 6 -7 28 75 24 91 -2 9 -10 10
-30 4z"/>
<path d="M3569 4045 c-46 -25 -64 -66 -60 -143 1 -13 16 -39 35 -58 29 -29 41
-34 80 -34 92 0 153 99 112 179 -32 62 -109 87 -167 56z m128 -27 c38 -35 49
-88 28 -132 -38 -80 -145 -89 -188 -16 -35 59 -11 148 47 170 33 12 88 1 113
-22z"/>
<path d="M11853 4033 c14 -4 17 -17 18 -71 l2 -67 9 67 c7 48 15 68 27 71 9 3
-4 5 -29 5 -25 0 -37 -2 -27 -5z"/>
<path d="M11952 3968 l1 -73 6 64 6 65 19 -52 c10 -29 22 -54 26 -57 5 -3 20
20 35 50 14 30 30 55 35 55 6 0 10 5 10 10 0 6 -6 10 -14 10 -7 0 -24 -26 -37
-57 l-23 -58 -25 58 c-13 31 -28 57 -33 57 -4 0 -7 -33 -6 -72z"/>
<path d="M12070 3955 c0 -30 5 -55 10 -55 6 0 10 25 10 55 0 30 -4 55 -10 55
-5 0 -10 -25 -10 -55z"/>
<path d="M1920 3960 c-42 -42 -13 -112 47 -112 55 0 83 73 41 112 -28 25 -62
26 -88 0z m80 -10 c27 -27 25 -55 -6 -79 -21 -17 -30 -19 -48 -9 -26 13 -36
27 -36 51 0 21 34 57 55 57 8 0 24 -9 35 -20z"/>
<path d="M5606 3950 c-49 -43 -81 -104 -95 -180 -17 -90 -20 -100 -37 -100
-10 0 -13 7 -10 23 7 28 33 173 39 210 3 18 -1 31 -12 37 -15 9 -15 9 1 10 9
0 24 3 34 7 15 5 16 2 10 -33 -10 -49 3 -39 14 11 l8 37 -36 -6 c-20 -3 -45
-6 -54 -6 -10 0 -18 -7 -18 -15 0 -9 9 -15 21 -15 19 0 20 -4 14 -47 -3 -27
-14 -88 -24 -136 l-18 -88 30 3 c29 3 30 5 48 92 13 66 25 98 47 125 32 40 70
52 84 27 13 -24 24 -20 39 15 11 28 10 33 -6 45 -27 20 -40 17 -79 -16z m74
-9 c0 -23 -16 -36 -25 -21 -3 5 -15 10 -26 10 -21 0 -26 16 -6 23 30 13 57 7
57 -12z"/>
<path d="M6114 3966 c-17 -8 -48 -34 -69 -59 -21 -26 -43 -43 -48 -40 -6 3 -7
1 -3 -5 4 -6 1 -39 -6 -72 -6 -33 -15 -55 -19 -49 -3 6 -8 2 -11 -9 -4 -15 -2
-19 9 -15 13 5 13 2 5 -14 -6 -11 -8 -23 -5 -27 3 -3 -3 -6 -14 -6 -20 0 -20
0 3 113 27 128 29 157 12 157 -20 0 14 20 35 20 9 0 17 -5 17 -11 0 -5 -4 -8
-9 -4 -5 3 -13 0 -17 -6 -4 -8 -3 -9 4 -5 8 5 12 -1 13 -16 1 -19 3 -17 12 10
5 18 7 35 3 39 -3 3 -27 2 -53 -3 -51 -10 -72 -34 -29 -34 22 0 26 -4 21 -22
-2 -13 -12 -63 -20 -113 -9 -49 -18 -100 -21 -112 -4 -20 0 -23 24 -23 28 0
29 2 46 93 18 94 29 115 80 155 29 22 70 29 80 13 3 -4 -3 -55 -14 -112 -27
-138 -26 -159 3 -159 23 0 107 35 107 45 0 3 -12 5 -27 5 -19 0 -24 -3 -15 -8
9 -6 -1 -13 -29 -21 -22 -7 -43 -10 -46 -7 -3 3 3 49 12 103 26 146 26 147 16
162 -5 8 -23 14 -41 13 -48 -1 -29 9 28 15 44 4 50 3 55 -16 3 -11 -3 -60 -14
-108 -21 -96 -24 -153 -9 -153 6 0 8 10 5 23 -3 12 3 66 15 121 24 120 24 112
0 136 -23 23 -43 24 -86 6z"/>
<path d="M7005 3964 c-42 -22 -64 -43 -90 -89 -23 -39 -29 -62 -42 -157 -4
-38 -10 -48 -25 -48 -14 0 -17 5 -13 23 14 61 35 185 35 210 0 19 -7 30 -22
37 -22 8 -22 9 4 9 14 1 34 4 43 7 14 6 15 1 9 -32 -8 -48 5 -39 16 10 9 40 7
41 -62 30 -40 -7 -54 -34 -18 -34 26 0 26 -16 0 -148 -25 -129 -25 -124 7
-120 27 3 29 7 44 90 9 48 24 99 33 113 21 32 74 65 104 65 28 0 29 -21 2
-159 -14 -71 -17 -108 -10 -115 6 -6 28 -4 65 8 58 18 77 43 25 33 -16 -4 -31
-3 -33 1 -3 4 6 57 19 117 28 135 28 121 4 145 -24 24 -54 25 -95 4z m90 -14
c9 -15 -6 -121 -16 -114 -5 3 -6 -1 -3 -9 3 -8 1 -41 -5 -73 -10 -52 -9 -59 6
-68 15 -8 14 -11 -11 -17 -35 -10 -49 -3 -41 20 3 9 13 63 24 120 18 101 18
104 0 122 -19 19 -39 17 -68 -5 -12 -8 -13 -8 -7 2 17 28 107 44 121 22z"/>
<path d="M8324 3961 c-46 -28 -91 -114 -109 -207 -8 -43 -15 -80 -15 -81 0 -2
-8 -3 -18 -3 -18 0 -18 4 -5 63 17 76 33 168 33 185 0 7 -10 17 -22 22 -21 8
-21 9 -3 10 11 0 29 3 41 6 18 5 20 1 17 -33 l-2 -38 10 38 c6 21 9 40 6 43
-11 11 -97 -8 -97 -22 0 -8 9 -14 20 -14 11 0 20 -2 20 -3 0 -2 -11 -64 -25
-138 -14 -74 -25 -134 -25 -135 0 0 13 1 29 4 28 4 30 7 46 93 14 72 24 95 51
127 18 22 31 41 29 44 -3 2 8 3 24 0 17 -2 33 -13 39 -25 10 -22 10 -21 21 6
13 34 14 67 2 67 -5 0 -15 2 -23 5 -7 3 -27 -4 -44 -14z m66 -18 c0 -10 -4
-24 -9 -31 -7 -11 -9 -11 -14 2 -4 9 -16 16 -27 16 -20 0 -26 11 -13 23 3 4
19 7 35 7 20 0 28 -5 28 -17z"/>
<path d="M9244 3961 c-22 -10 -50 -30 -61 -45 -25 -31 -37 -34 -29 -6 3 11 9
29 12 40 6 22 -15 26 -75 14 -38 -8 -42 -34 -5 -34 19 0 24 -4 20 -17 -6 -23
-46 -231 -46 -244 0 -5 13 -9 29 -9 27 0 29 3 36 48 15 105 26 139 58 173 17
19 31 37 30 41 -2 3 5 12 15 20 15 12 16 11 3 -4 -12 -16 -11 -17 17 -12 16 3
32 1 36 -4 5 -9 -25 -193 -40 -244 -4 -14 1 -18 24 -18 30 0 30 0 47 95 17 90
19 96 61 135 27 25 53 40 69 40 32 0 32 -17 5 -159 -11 -57 -17 -108 -14 -112
8 -13 33 -11 81 7 24 9 43 23 43 30 0 10 -6 11 -26 4 -14 -6 -27 -10 -30 -10
-9 0 -3 60 14 141 21 98 17 129 -20 141 -29 10 -104 -15 -94 -31 3 -5 -2 -15
-12 -22 -15 -13 -16 -12 -3 4 9 11 10 17 2 17 -6 0 -24 -20 -39 -45 -15 -25
-34 -45 -42 -45 -10 0 -11 -3 -4 -8 13 -8 -3 -132 -16 -132 -5 0 -6 -9 -3 -20
4 -14 0 -20 -12 -20 -14 0 -16 6 -11 31 3 17 6 40 6 51 0 10 3 17 8 15 4 -3 7
11 8 31 1 21 5 61 9 90 8 52 8 52 -19 52 -14 0 -26 5 -26 11 0 6 16 9 38 7 34
-3 37 -5 37 -35 0 -17 3 -29 7 -26 14 8 9 51 -8 67 -20 20 -30 20 -80 -3z
m-98 -35 c-4 -20 -2 -37 4 -41 15 -9 12 -25 -4 -25 -8 0 -13 -6 -12 -12 0 -7
-5 -50 -13 -95 -11 -71 -16 -83 -33 -83 -14 0 -18 5 -14 18 11 35 44 237 39
245 -2 4 -14 7 -26 8 -20 1 -20 2 3 9 53 17 63 13 56 -24z m371 17 c4 -9 -3
-66 -15 -127 -19 -99 -20 -112 -6 -127 14 -15 13 -17 -11 -23 -14 -4 -29 -4
-34 -2 -4 3 -2 33 6 68 27 129 34 191 20 204 -3 4 -18 7 -33 7 -18 0 -22 2
-13 8 25 15 79 10 86 -8z"/>
<path d="M5768 3963 c-32 -5 -38 -33 -8 -33 25 0 25 1 -4 -139 -13 -63 -22
-121 -19 -129 7 -16 60 -9 105 14 38 20 35 28 -7 21 -31 -5 -35 -3 -35 17 0
18 26 156 44 239 4 18 -11 20 -76 10z m62 -13 c0 -4 -9 -52 -20 -105 -23 -110
-25 -146 -9 -162 7 -7 3 -12 -16 -17 -15 -4 -30 -4 -33 -1 -7 7 30 205 38 200
3 -2 4 14 2 36 -3 32 -8 39 -26 40 -19 1 -18 2 4 8 37 10 60 11 60 1z"/>
<path d="M6381 3953 c-46 -24 -75 -66 -75 -108 0 -41 27 -76 45 -58 6 6 18 9
26 6 13 -5 12 -1 -2 20 -19 30 -13 80 13 110 22 24 88 23 102 -2 16 -31 12
-76 -10 -103 -10 -14 -18 -27 -15 -29 2 -3 -14 -3 -36 -1 -26 3 -39 0 -39 -8
0 -9 -3 -10 -13 -1 -10 8 -20 4 -42 -20 -25 -25 -27 -33 -18 -48 10 -15 8 -20
-11 -29 -12 -5 -23 -16 -24 -24 -1 -7 -4 -31 -6 -53 -3 -22 -5 -44 -5 -48 -1
-5 -5 -5 -11 -2 -16 10 -11 67 8 88 13 16 14 19 2 15 -20 -6 -40 -67 -30 -93
12 -36 68 -57 140 -52 70 4 135 30 124 49 -4 7 -3 8 4 4 16 -10 34 39 26 71
-8 31 -55 60 -111 69 -69 10 -86 54 -20 54 108 0 189 84 147 150 -7 11 -4 16
12 20 37 9 34 31 -4 30 -18 -1 -58 1 -88 5 -43 5 -63 2 -89 -12z m126 -3 c16
-6 30 -16 31 -23 1 -7 4 -24 8 -39 7 -31 -28 -98 -52 -98 -13 0 -12 3 0 23 35
53 24 119 -23 136 -14 5 -19 10 -10 10 9 1 29 -4 46 -9z m-132 -26 c-16 -12
-20 -27 -20 -72 0 -31 -4 -56 -8 -54 -4 1 -11 2 -17 2 -5 0 -10 20 -10 45 0
35 6 52 25 70 13 14 30 25 37 25 8 -1 5 -7 -7 -16z m56 -234 c78 -27 102 -51
91 -93 -6 -20 -7 -19 -12 8 -4 27 -12 32 -65 48 -80 25 -99 34 -114 59 -11 17
-10 22 1 29 8 5 15 2 19 -9 3 -10 35 -27 80 -42z m-10 -39 c69 -22 86 -39 69
-70 -5 -10 -7 -20 -5 -23 6 -6 -6 -8 -87 -14 -62 -5 -69 -4 -93 20 -14 14 -25
32 -25 40 0 21 50 78 64 72 6 -3 41 -14 77 -25z m-75 -121 l49 -9 -53 4 c-59
5 -75 11 -66 27 4 7 9 6 14 -2 4 -6 29 -15 56 -20z"/>
<path d="M6661 3961 c-31 -8 -40 -31 -12 -31 27 0 27 -18 1 -134 -24 -108 -25
-135 -5 -142 17 -7 115 26 115 38 0 13 -32 9 -49 -6 -9 -8 -28 -18 -43 -21
-36 -9 -36 0 -3 139 26 108 25 135 -4 137 -9 1 7 7 34 14 38 10 43 13 20 13
-16 0 -41 -3 -54 -7z"/>
<path d="M7275 3952 c-49 -23 -75 -59 -75 -105 0 -38 16 -63 45 -70 18 -3 17
-5 -7 -15 -17 -7 -28 -19 -28 -31 0 -23 16 -36 25 -21 3 5 1 10 -4 10 -6 0
-11 5 -11 11 0 5 5 7 12 3 7 -4 8 -3 4 4 -4 7 -3 12 1 12 5 0 13 -10 18 -22 6
-13 19 -24 30 -26 57 -10 97 -25 115 -44 24 -26 26 -70 5 -88 -14 -11 -14 -10
-6 13 16 41 -9 59 -126 94 -57 17 -73 15 -102 -15 -34 -33 -49 -77 -34 -101
18 -30 75 -51 133 -49 44 1 47 2 15 5 -72 6 -106 14 -100 24 4 5 13 5 23 0 9
-4 47 -11 84 -13 91 -7 138 23 138 88 0 39 -33 69 -94 85 -22 5 -49 12 -58 15
-10 3 -18 14 -18 25 0 16 7 19 43 19 52 0 121 31 137 61 7 12 10 41 7 65 -4
35 -1 43 14 47 31 8 21 28 -13 28 -18 0 -55 2 -83 4 -36 4 -61 0 -90 -13z
m147 -7 c13 -5 15 -12 7 -31 -6 -17 -6 -23 1 -19 6 4 10 -7 10 -24 0 -17 -5
-31 -11 -31 -5 0 -8 -4 -5 -9 4 -5 -9 -18 -26 -29 -27 -17 -41 -19 -77 -12
-24 4 -48 14 -53 21 -9 15 -6 71 6 104 8 20 7 20 -8 1 -20 -25 -21 -99 -1
-116 27 -22 16 -30 -17 -12 -27 15 -34 26 -36 55 -2 23 1 37 8 37 6 0 9 4 5 9
-3 5 9 21 27 34 44 33 115 26 137 -14 17 -30 9 -71 -19 -99 -20 -20 -16 -27 6
-12 30 19 47 103 24 117 -6 4 -8 10 -5 15 3 5 -7 12 -22 16 -47 10 -50 14 -8
10 22 -2 48 -7 57 -11z m-95 -171 c-3 -3 -12 -4 -19 -1 -8 3 -5 6 6 6 11 1 17
-2 13 -5z m-71 -102 c5 -5 29 -14 54 -21 66 -18 89 -36 83 -62 -3 -11 -16 -25
-29 -31 -13 -6 -22 -14 -20 -17 5 -8 -114 4 -136 13 -23 10 -32 41 -22 74 4
15 6 31 5 35 -1 5 3 6 8 3 5 -4 12 -2 16 4 8 12 28 13 41 2z m-83 -67 c0 -27
3 -45 10 -45 8 0 8 -3 0 -11 -14 -14 -36 -1 -29 17 3 8 1 14 -4 14 -15 0 -12
17 6 45 9 14 17 25 18 25 0 0 0 -20 -1 -45z"/>
<path d="M8500 3952 c-19 -9 -48 -36 -64 -60 -25 -35 -31 -55 -34 -112 -4 -66
-3 -71 26 -100 23 -23 39 -30 69 -30 46 0 143 43 143 64 0 13 -7 12 -42 -4
-80 -37 -138 -17 -138 46 0 31 11 58 19 46 8 -13 103 4 142 24 34 17 55 74 39
103 -23 44 -98 55 -160 23z m142 -15 c26 -40 -6 -102 -57 -112 -26 -5 -27 -4
-7 5 46 20 51 97 9 119 -19 10 -18 11 13 6 18 -3 38 -11 42 -18z m-76 3 c17 0
27 -8 35 -26 13 -36 -11 -73 -53 -81 -28 -6 -30 -7 -13 -15 13 -5 6 -6 -20 -2
-22 3 -42 7 -44 9 -7 8 20 70 41 92 12 13 16 23 10 23 -6 0 -19 -12 -29 -27
-10 -16 -22 -31 -27 -34 -5 -4 -7 -21 -4 -38 3 -18 1 -34 -4 -37 -14 -9 -9
-78 8 -102 11 -16 26 -22 57 -23 l42 -1 -39 -10 c-50 -14 -111 11 -103 42 3
11 1 18 -4 14 -12 -7 -12 62 1 105 19 68 74 126 108 115 8 -2 25 -4 38 -4z
m34 -250 c-8 -5 -19 -10 -25 -10 -5 0 -3 5 5 10 8 5 20 10 25 10 6 0 3 -5 -5
-10z"/>
<path d="M8795 3947 c-57 -32 -96 -100 -102 -181 -5 -60 -4 -66 21 -91 22 -22
33 -26 59 -21 42 9 74 31 98 69 l20 32 -7 -47 c-5 -39 -3 -49 10 -54 18 -7
102 21 112 37 10 17 -2 20 -30 9 -15 -5 -31 -8 -35 -5 -4 2 -1 35 6 72 8 37
20 98 28 136 l13 67 -77 0 c-60 0 -84 -5 -116 -23z m175 1 c0 -32 -45 -228
-52 -228 -15 0 16 -40 32 -41 8 0 2 -5 -15 -10 -18 -5 -31 -5 -35 2 -6 9 -4
78 3 109 29 125 29 131 12 150 -9 10 -27 21 -39 23 -11 2 5 5 37 6 38 1 57 -3
57 -11z m-154 -7 c-4 -5 10 -7 31 -4 24 3 45 -1 56 -9 17 -13 17 -17 2 -87
-13 -55 -26 -83 -49 -109 -34 -37 -80 -47 -97 -21 -21 33 -3 139 33 194 18 28
18 28 -10 -4 -31 -34 -50 -105 -44 -161 4 -34 38 -61 71 -55 14 3 6 -2 -18
-10 -40 -13 -46 -13 -63 1 -48 44 -26 166 43 234 39 38 57 51 45 31z"/>
<path d="M9650 3942 c-55 -56 -40 -98 59 -164 63 -42 52 -101 -20 -101 -37 0
-49 12 -58 54 l-7 33 -23 -39 c-21 -37 -22 -40 -5 -52 10 -7 32 -16 51 -19 81
-15 153 26 153 88 0 43 -22 73 -70 98 -58 30 -67 93 -15 106 31 8 44 -1 60
-39 l13 -31 17 33 c22 44 11 54 -64 59 -56 4 -62 2 -91 -26z m38 7 c-31 -17
-23 -73 12 -101 90 -68 93 -72 86 -110 -3 -19 -16 -44 -29 -54 -12 -10 -16
-12 -9 -4 17 19 15 75 -3 90 -12 10 -13 16 -3 29 11 14 11 14 -4 3 -37 -29
-116 43 -104 94 7 27 42 63 61 63 6 0 2 -4 -7 -10z m96 5 c9 -3 16 -12 16 -19
0 -25 -15 -24 -27 1 -12 26 -12 27 11 18z m-132 -278 l23 -17 -30 7 c-41 9
-48 18 -40 45 8 24 8 24 16 2 4 -11 18 -28 31 -37z"/>
<path d="M10345 3954 c-69 -36 -104 -97 -105 -182 0 -64 11 -87 50 -107 122
-63 278 83 240 224 -19 72 -111 104 -185 65z m153 -29 c32 -38 33 -104 0 -173
-24 -50 -47 -65 -110 -69 -66 -5 -88 20 -88 99 0 103 58 178 121 156 34 -12
49 -46 49 -111 0 -36 -7 -65 -24 -94 -15 -25 -19 -40 -11 -37 23 9 48 86 50
152 1 34 -1 60 -3 57 -3 -3 -12 4 -20 16 -8 11 -24 25 -36 30 -17 7 -14 8 14
4 21 -2 44 -14 58 -30z m-167 -10 c-17 -20 -31 -39 -31 -43 -1 -4 -5 -27 -10
-52 -12 -59 3 -115 36 -136 30 -20 26 -28 -9 -15 -44 17 -67 47 -67 90 0 70
12 102 55 147 51 52 70 59 26 9z"/>
<path d="M11138 3963 c-32 -5 -38 -33 -8 -33 25 0 25 -9 -4 -142 -19 -88 -21
-111 -11 -125 11 -15 18 -15 52 -5 23 7 40 18 40 27 0 20 -14 19 -26 -2 -5
-10 -13 -15 -17 -11 -3 4 -15 3 -25 -3 -16 -8 -19 -6 -19 15 0 14 9 64 20 111
25 107 26 145 3 145 -25 0 -11 8 25 15 38 6 38 11 11 -116 -11 -55 -19 -112
-17 -126 2 -15 15 37 29 115 l25 142 -25 -1 c-14 -1 -38 -4 -53 -6z"/>
<path d="M11615 3956 c-39 -17 -60 -41 -86 -100 -30 -69 -23 -150 15 -183 41
-35 115 -27 200 23 32 19 10 34 -25 17 -43 -21 -106 -28 -124 -13 -8 6 -17 28
-21 47 -8 40 4 53 51 53 80 0 141 36 151 87 13 67 -77 106 -161 69z m18 -17
c-36 -23 -67 -81 -60 -115 2 -13 0 -24 -5 -24 -5 0 -8 -22 -6 -49 2 -27 6 -47
9 -45 4 2 9 -3 13 -11 3 -10 20 -15 48 -16 33 0 38 -2 23 -9 -37 -16 -83 -11
-104 11 -25 27 -37 72 -21 77 8 3 9 7 2 11 -32 19 32 145 90 178 37 20 46 14
11 -8z m110 7 c10 -8 17 -27 17 -48 0 -38 -19 -61 -60 -73 -25 -7 -25 -7 -4 9
39 28 38 93 0 118 -6 5 -3 8 9 8 11 -1 28 -7 38 -14z m-35 -35 c7 -48 -6 -70
-46 -77 -35 -7 -36 -8 -12 -15 16 -5 8 -6 -20 -3 -25 4 -47 8 -49 10 -7 7 20
69 41 92 30 31 81 28 86 -7z"/>
<path d="M10128 3942 c-9 -10 -23 -56 -32 -107 -27 -148 -27 -139 8 -151 l31
-11 -39 -7 c-23 -4 -43 -3 -49 3 -7 7 -3 50 11 137 22 130 23 179 2 82 -21
-96 -34 -204 -27 -223 6 -15 15 -17 52 -11 52 7 108 33 100 46 -3 5 -20 4 -40
-1 -62 -17 -64 -11 -38 134 l18 97 47 0 c36 0 48 4 48 15 0 21 -70 19 -92 -3z
m79 2 c-3 -3 -12 -4 -19 -1 -8 3 -5 6 6 6 11 1 17 -2 13 -5z"/>
<path d="M6712 3895 c-17 -82 -19 -96 -21 -123 0 -13 -5 -21 -9 -18 -4 2 -6
-11 -4 -30 2 -19 8 -34 14 -34 5 0 6 5 3 10 -3 6 3 57 15 115 12 58 20 113 18
123 -2 9 -9 -10 -16 -43z"/>
<path d="M2876 3873 c-94 -94 14 -240 133 -179 46 24 65 94 40 149 -27 59
-126 77 -173 30z m151 -18 c16 -18 23 -39 23 -67 0 -100 -140 -135 -186 -47
-25 49 -14 95 30 132 32 27 103 17 133 -18z"/>
<path d="M2409 3835 c-57 -31 -56 -130 1 -160 42 -22 74 -19 109 11 26 21 31
33 31 69 0 75 -74 117 -141 80z m91 -12 c34 -23 40 -33 40 -69 0 -49 -28 -76
-79 -78 -34 0 -47 4 -62 23 -60 74 24 177 101 124z"/>
<path d="M4188 3767 c-14 -13 -29 -34 -33 -46 -20 -65 34 -141 102 -141 47 0
103 54 103 99 0 39 -24 87 -49 101 -35 18 -96 12 -123 -13z m125 -7 c38 -30
45 -80 17 -125 -13 -21 -30 -35 -43 -36 -12 -1 -29 -2 -37 -3 -32 -3 -68 24
-80 59 -30 91 69 163 143 105z"/>
<path d="M3225 3770 c-42 -17 -68 -58 -68 -104 0 -113 120 -164 195 -84 81 86
-18 233 -127 188z m96 -21 c25 -13 49 -61 49 -99 0 -21 -9 -41 -29 -61 -61
-61 -171 -22 -171 61 0 57 16 89 52 104 33 14 67 13 99 -5z"/>
<path d="M3549 3712 c-67 -33 -87 -126 -38 -178 76 -81 199 -33 199 79 0 29
-8 45 -32 71 -40 42 -83 51 -129 28z m102 -12 c23 -13 49 -61 49 -93 0 -35
-41 -89 -74 -98 -39 -11 -98 10 -113 41 -37 73 7 160 82 160 20 0 45 -5 56
-10z"/>
<path d="M3869 3715 c-32 -17 -61 -84 -53 -122 11 -55 59 -93 117 -93 31 0 46
7 73 34 29 29 34 41 34 80 0 64 -38 106 -100 112 -28 3 -55 -1 -71 -11z m99
-6 c32 -11 62 -59 62 -99 0 -50 -51 -100 -101 -100 -28 0 -77 27 -89 49 -13
25 -13 87 0 111 12 22 56 49 81 50 9 0 30 -5 47 -11z"/>
<path d="M11220 3690 c0 -5 5 -10 10 -10 6 0 10 5 10 10 0 6 -4 10 -10 10 -5
0 -10 -4 -10 -10z"/>
<path d="M2730 3592 c-87 -87 36 -212 128 -129 16 15 22 32 22 63 0 56 -24 84
-77 91 -37 5 -46 2 -73 -25z m115 -7 c32 -31 34 -86 5 -115 -31 -31 -93 -27
-119 6 -63 80 43 181 114 109z"/>
<path d="M2227 3592 c-35 -39 -6 -112 43 -112 27 0 70 43 70 70 0 50 -79 80
-113 42z m86 -13 c10 -13 12 -30 8 -47 -13 -49 -101 -40 -101 10 0 56 63 81
93 37z"/>
<path d="M4276 3445 c-47 -44 -29 -133 31 -156 38 -14 90 6 109 43 48 92 -65
183 -140 113z m97 4 c65 -30 51 -142 -18 -149 -39 -4 -54 0 -75 22 -36 39 -24
100 25 126 26 14 38 15 68 1z"/>
<path d="M3120 3447 c-13 -7 -31 -29 -39 -50 -13 -34 -12 -42 2 -73 29 -60
101 -72 148 -25 77 78 -12 198 -111 148z m77 -7 c31 -11 53 -45 53 -81 0 -29
-53 -79 -85 -79 -38 0 -75 41 -75 85 0 25 8 44 25 60 27 28 38 30 82 15z"/>
<path d="M3930 3389 c-53 -21 -75 -82 -48 -132 18 -34 40 -46 84 -47 54 0 89
35 89 91 0 65 -66 112 -125 88z m90 -29 c28 -28 27 -93 -2 -120 -27 -25 -78
-26 -109 -1 -18 14 -24 29 -24 61 0 32 6 47 24 61 31 25 85 25 111 -1z"/>
<path d="M3507 3370 c-34 -27 -44 -78 -23 -118 31 -60 99 -71 147 -23 42 43
37 112 -10 148 -25 19 -85 15 -114 -7z m112 -7 c12 -10 24 -35 28 -55 5 -32 1
-41 -25 -68 -34 -33 -66 -38 -100 -14 -45 32 -47 89 -5 136 21 23 75 23 102 1z"/>
<path d="M2607 3332 c-22 -25 -21 -75 1 -95 40 -37 105 -7 105 48 0 56 -70 87
-106 47z m69 -1 c6 -1 16 -12 22 -25 9 -20 7 -29 -9 -50 -11 -14 -28 -26 -36
-26 -24 0 -53 30 -53 53 0 27 27 56 48 52 9 -2 22 -4 28 -4z"/>
<path d="M4380 3150 c-11 -11 -20 -31 -20 -45 0 -30 32 -65 60 -65 12 0 32 11
45 25 14 13 25 33 25 45 0 28 -35 60 -65 60 -14 0 -34 -9 -45 -20z m74 -3 c20
-15 25 -62 8 -79 -17 -17 -64 -12 -79 8 -18 25 -16 41 7 64 23 23 39 25 64 7z"/>
<path d="M3040 3140 c-11 -11 -20 -31 -20 -45 0 -28 32 -65 56 -65 23 0 52 18
64 40 11 21 -2 69 -23 82 -22 14 -57 8 -77 -12z m82 -12 c4 -7 7 -26 6 -43 -3
-28 -6 -30 -43 -30 -34 0 -41 4 -50 29 -8 24 -6 31 13 46 24 20 60 19 74 -2z"/>
<path d="M3983 3080 c-45 -18 -53 -89 -13 -110 74 -39 138 49 74 99 -30 23
-30 23 -61 11z m61 -26 c32 -32 8 -84 -38 -84 -40 0 -63 46 -40 79 18 25 56
27 78 5z"/>
<path d="M3507 3062 c-26 -28 -22 -78 7 -97 64 -42 130 41 76 95 -25 25 -62
26 -83 2z m81 -20 c18 -24 15 -49 -10 -66 -28 -20 -43 -20 -62 0 -35 34 -6
101 38 88 11 -3 27 -13 34 -22z"/>
</g>
</svg>
